<svg xmlns="http://www.w3.org/2000/svg" viewBox="0 0 90 111.25" x="0px" y="0px"><path fill="lime" fill-rule="evenodd" d="M56.1630317,87.3604409 C53.8390031,87.7806099 51.4451222,88 49,88 C26.90861,88 9,70.09139 9,48 C9,41.551956 10.5257093,35.4602604 13.2358143,30.0662269 C24.2270864,31.3964618 35.3029366,36.9650628 43.8419191,46.4485636 C54.6760811,58.4811196 58.815583,73.9164443 56.1630317,87.3604409 Z M50,94 C74.8528137,94 95,74.0766714 95,49.5 C95,24.9233286 74.8528137,5 50,5 C25.1471863,5 5,24.9233286 5,49.5 C5,74.0766714 25.1471863,94 50,94 Z M77.6443641,47.5629478 C85.0298658,44.4694838 87.5886523,35.3577737 83.3595737,27.2113736 C79.1304951,19.0649736 69.7150174,14.9687597 62.3295158,18.0622237 C54.9440141,21.1556877 52.3852277,30.2673979 56.6143063,38.4137979 C60.8433849,46.5601979 70.2588625,50.6564118 77.6443641,47.5629478 Z" transform="translate(-5 -5)"/></svg>